<svg width="175" height="27" viewBox="0 0 175 27" fill="none" xmlns="http://www.w3.org/2000/svg">
<g id="Navbar Brand">
<g id="Logo wrapper">
<g id="Logo">
<path id="Stephanie Holmes" d="M6.2959 19.3115C5.41504 19.3115 4.6416 19.2041 3.97559 18.9893C3.31673 18.7673 2.7832 18.513 2.375 18.2266L1.7627 19.0107H0.90332L1.95605 13.79H2.82617C2.86198 14.4131 2.94434 14.9967 3.07324 15.541C3.20931 16.0853 3.42773 16.5758 3.72852 17.0127C4.0293 17.4639 4.4196 17.8148 4.89941 18.0654C5.37923 18.3089 5.97363 18.4307 6.68262 18.4307C7.74967 18.4307 8.60547 18.137 9.25 17.5498C9.89453 16.9554 10.2168 16.1462 10.2168 15.1221C10.2168 14.5706 10.0807 14.0801 9.80859 13.6504C9.53646 13.2207 9.12826 12.8877 8.58398 12.6514C8.06836 12.4294 7.55632 12.2324 7.04785 12.0605C6.54655 11.8815 6.05241 11.6738 5.56543 11.4375C4.9209 11.1296 4.40169 10.6891 4.00781 10.1162C3.61393 9.53613 3.41699 8.88444 3.41699 8.16113C3.41699 7.47363 3.56738 6.83984 3.86816 6.25977C4.17611 5.67969 4.58073 5.17839 5.08203 4.75586C5.56901 4.34766 6.15625 4.02181 6.84375 3.77832C7.53841 3.53483 8.22591 3.41309 8.90625 3.41309C9.54362 3.41309 10.1452 3.48828 10.7109 3.63867C11.2839 3.78906 11.8568 4.07194 12.4297 4.4873L13.0205 3.75684H13.8799L12.7949 8.81641H11.9248C11.9033 8.26497 11.846 7.69564 11.7529 7.1084C11.667 6.52116 11.5166 6.03418 11.3018 5.64746C11.0654 5.22493 10.736 4.89551 10.3135 4.65918C9.89095 4.41569 9.32878 4.29395 8.62695 4.29395C7.7819 4.29395 7.07292 4.58757 6.5 5.1748C5.92708 5.75488 5.64062 6.44596 5.64062 7.24805C5.64062 7.77799 5.74447 8.22917 5.95215 8.60156C6.16699 8.9668 6.49642 9.264 6.94043 9.49316C7.41309 9.73665 7.90723 9.94792 8.42285 10.127C8.94564 10.2988 9.41113 10.4814 9.81934 10.6748C10.6429 11.0615 11.2839 11.527 11.7422 12.0713C12.2077 12.6156 12.4404 13.2816 12.4404 14.0693C12.4404 14.8285 12.2757 15.5374 11.9463 16.1963C11.6169 16.8551 11.1764 17.4066 10.625 17.8506C10.0449 18.3232 9.39323 18.6849 8.66992 18.9355C7.95378 19.1862 7.16243 19.3115 6.2959 19.3115ZM16.1684 19.2256C15.4881 19.2256 14.9903 19.0895 14.6752 18.8174C14.3601 18.5381 14.2026 18.1406 14.2026 17.625C14.2026 17.4603 14.2133 17.3063 14.2348 17.1631C14.2563 17.0127 14.2849 16.8444 14.3207 16.6582L15.9858 9.48242H14.0737L14.2993 8.50488H16.2543L17.0063 5.35742H18.9399L18.2094 8.50488H21.2065L20.9809 9.48242H18.0053L16.6303 15.4014C16.5659 15.6735 16.5121 15.9385 16.4692 16.1963C16.4262 16.4469 16.4047 16.6618 16.4047 16.8408C16.4047 17.2347 16.5014 17.5247 16.6948 17.7109C16.8953 17.89 17.2534 17.9795 17.769 17.9795C17.9552 17.9795 18.2166 17.958 18.5532 17.915C18.8898 17.8649 19.1511 17.804 19.3373 17.7324L19.1547 18.5166C18.6534 18.71 18.1808 18.8747 17.7368 19.0107C17.2927 19.154 16.77 19.2256 16.1684 19.2256ZM30.0692 10.3955C30.0692 11.1546 29.8293 11.8063 29.3495 12.3506C28.8768 12.8949 28.1858 13.3281 27.2763 13.6504C26.6102 13.8939 25.9371 14.0908 25.2567 14.2412C24.5764 14.3916 23.8244 14.5169 23.0009 14.6172C23.0009 15.7487 23.2085 16.6152 23.6239 17.2168C24.0464 17.8112 24.6623 18.1084 25.4716 18.1084C26.1877 18.1084 26.8179 17.9294 27.3622 17.5713C27.9136 17.2132 28.4543 16.6797 28.9843 15.9707L29.5966 16.4219C29.0236 17.2956 28.3075 17.9938 27.4481 18.5166C26.5888 19.0394 25.6971 19.3008 24.7733 19.3008C23.5057 19.3008 22.5354 18.9463 21.8622 18.2373C21.1962 17.5283 20.8632 16.5221 20.8632 15.2188C20.8632 14.3164 21.0028 13.457 21.2821 12.6406C21.5686 11.8171 21.9839 11.0651 22.5282 10.3848C23.0582 9.71875 23.7063 9.18164 24.4725 8.77344C25.246 8.36523 26.0982 8.16113 27.0292 8.16113C28.0604 8.16113 28.8231 8.3724 29.3173 8.79492C29.8186 9.21029 30.0692 9.74382 30.0692 10.3955ZM28.0927 10.127C28.0927 9.84766 28.0533 9.62923 27.9745 9.47168C27.8957 9.30697 27.7955 9.18522 27.6737 9.10645C27.5448 9.02051 27.4087 8.9668 27.2655 8.94531C27.1223 8.92383 26.9755 8.91309 26.8251 8.91309C25.9657 8.91309 25.1708 9.38574 24.4403 10.3311C23.717 11.2764 23.2587 12.4544 23.0653 13.8652C23.5666 13.7936 24.1324 13.6934 24.7626 13.5645C25.3928 13.4284 25.9156 13.2529 26.3309 13.0381C26.9253 12.7301 27.3658 12.3363 27.6522 11.8564C27.9458 11.3695 28.0927 10.793 28.0927 10.127ZM42.0257 12.2646C42.0257 13.2243 41.8574 14.1338 41.5208 14.9932C41.1842 15.8525 40.7366 16.5973 40.178 17.2275C39.555 17.9222 38.8782 18.4378 38.1478 18.7744C37.4245 19.111 36.6797 19.2793 35.9134 19.2793C35.2975 19.2793 34.7926 19.2041 34.3988 19.0537C34.0049 18.9033 33.654 18.7171 33.346 18.4951L32.723 21.3096C32.68 21.4886 32.6442 21.6569 32.6155 21.8145C32.5941 21.972 32.5833 22.0973 32.5833 22.1904C32.5833 22.3838 32.6514 22.5378 32.7874 22.6523C32.9307 22.7669 33.0918 22.8493 33.2708 22.8994C33.4499 22.9567 33.6504 22.9997 33.8724 23.0283C34.0944 23.057 34.2949 23.0785 34.4739 23.0928L34.3236 23.7695H28.4046L28.555 23.0928C28.7842 23.0785 28.999 23.0605 29.1995 23.0391C29.4001 23.0176 29.5898 22.9818 29.7689 22.9316C29.9909 22.8672 30.1663 22.7454 30.2952 22.5664C30.4313 22.3945 30.528 22.1797 30.5853 21.9219L32.8304 12.0391C32.8877 11.7669 32.9414 11.4948 32.9915 11.2227C33.0417 10.9434 33.0667 10.7035 33.0667 10.5029C33.0667 10.1019 33.0023 9.83333 32.8734 9.69727C32.7516 9.5612 32.4831 9.49316 32.0677 9.49316C31.9101 9.49316 31.7096 9.52539 31.4661 9.58984C31.2226 9.64714 31.0329 9.69368 30.8968 9.72949L31.0579 9.04199C31.6022 8.7985 32.0928 8.6123 32.5296 8.4834C32.9665 8.34733 33.3389 8.2793 33.6468 8.2793C34.1481 8.2793 34.5277 8.4082 34.7855 8.66602C35.0433 8.91667 35.2044 9.26758 35.2689 9.71875H35.3548C35.8418 9.26758 36.361 8.89518 36.9124 8.60156C37.471 8.30794 38.026 8.16113 38.5775 8.16113C39.666 8.16113 40.5111 8.53353 41.1126 9.27832C41.7213 10.016 42.0257 11.0114 42.0257 12.2646ZM38.6741 16.7012C39.0394 16.1139 39.3187 15.4479 39.512 14.7031C39.7126 13.9512 39.8128 13.1562 39.8128 12.3184C39.8128 11.9388 39.777 11.5592 39.7054 11.1797C39.6409 10.793 39.5335 10.4743 39.3831 10.2236C39.2256 9.94434 39.0107 9.72949 38.7386 9.5791C38.4665 9.42155 38.1084 9.34277 37.6644 9.34277C37.3349 9.34277 36.9697 9.44303 36.5687 9.64355C36.1748 9.84408 35.6914 10.2201 35.1185 10.7715L33.7435 16.8623C33.7936 17.2705 34.012 17.6536 34.3988 18.0117C34.7926 18.3626 35.2653 18.5381 35.8167 18.5381C36.3825 18.5381 36.9124 18.3734 37.4066 18.0439C37.9007 17.7145 38.3232 17.2669 38.6741 16.7012ZM54.0896 17.7539L53.9285 18.4414C53.2839 18.6992 52.7826 18.8854 52.4246 19C52.0665 19.1217 51.7048 19.1826 51.3396 19.1826C50.7667 19.1826 50.337 19.0358 50.0505 18.7422C49.7641 18.4414 49.6209 18.0726 49.6209 17.6357C49.6209 17.4782 49.6352 17.3063 49.6638 17.1201C49.6925 16.9268 49.739 16.7012 49.8035 16.4434L50.8562 12.4365C50.935 12.1286 50.9959 11.8493 51.0388 11.5986C51.089 11.348 51.114 11.1475 51.114 10.9971C51.114 10.5173 50.9994 10.1377 50.7703 9.8584C50.5411 9.5791 50.2009 9.43945 49.7498 9.43945C49.2914 9.43945 48.7937 9.58626 48.2566 9.87988C47.7267 10.1735 47.2218 10.5853 46.742 11.1152L44.9265 19H42.9285L46.1189 5.1748C46.1547 5.01009 46.1834 4.87044 46.2048 4.75586C46.2335 4.64128 46.2478 4.51953 46.2478 4.39062C46.2478 4.13281 46.2048 3.93587 46.1189 3.7998C46.033 3.65658 45.9112 3.54915 45.7537 3.47754C45.6176 3.41309 45.4314 3.37012 45.1951 3.34863C44.9588 3.32715 44.7224 3.30208 44.4861 3.27344L44.6365 2.61816L48.6218 2.37109L48.7293 2.53223L47.0105 9.96582H47.0535C47.7911 9.37142 48.45 8.92383 49.03 8.62305C49.6101 8.3151 50.269 8.16113 51.0066 8.16113C51.6941 8.16113 52.2312 8.36165 52.6179 8.7627C53.0047 9.15658 53.198 9.67578 53.198 10.3203C53.198 10.4492 53.1765 10.6784 53.1336 11.0078C53.0977 11.3372 53.0369 11.6631 52.9509 11.9854L52.0486 15.4336C51.9913 15.6628 51.9304 15.9277 51.866 16.2285C51.8015 16.5221 51.7693 16.7513 51.7693 16.916C51.7693 17.3242 51.8588 17.6035 52.0379 17.7539C52.2169 17.8971 52.5105 17.9688 52.9187 17.9688C53.0548 17.9688 53.2481 17.9473 53.4988 17.9043C53.7566 17.8542 53.9535 17.804 54.0896 17.7539ZM61.7492 17.582H61.674C61.5165 17.7109 61.3267 17.8757 61.1047 18.0762C60.8898 18.2695 60.6356 18.4557 60.342 18.6348C60.0627 18.8138 59.7583 18.9678 59.4289 19.0967C59.0995 19.2327 58.7414 19.3008 58.3547 19.3008C57.3163 19.3008 56.4999 18.9284 55.9055 18.1836C55.3182 17.4388 55.0246 16.4219 55.0246 15.1328C55.0246 14.2448 55.1893 13.3818 55.5187 12.5439C55.8482 11.7061 56.3029 10.9541 56.883 10.2881C57.4344 9.65072 58.0897 9.13867 58.8488 8.75195C59.6079 8.35807 60.3885 8.16113 61.1906 8.16113C61.6991 8.16113 62.1825 8.22917 62.6408 8.36523C63.1063 8.5013 63.4715 8.65527 63.7365 8.82715L65.7023 8.32227L65.8312 8.4834L64.1984 15.4121C64.1411 15.6341 64.0803 15.9062 64.0158 16.2285C63.9585 16.5436 63.9299 16.7764 63.9299 16.9268C63.9299 17.335 64.0158 17.6107 64.1877 17.7539C64.3596 17.8971 64.6496 17.9688 65.0578 17.9688C65.1939 17.9688 65.3872 17.9473 65.6379 17.9043C65.8885 17.8613 66.0819 17.8148 66.218 17.7646L66.0568 18.4521C65.4123 18.71 64.9325 18.8962 64.6174 19.0107C64.3023 19.1253 63.9191 19.1826 63.468 19.1826C62.9523 19.1826 62.5441 19.0322 62.2434 18.7314C61.9426 18.4307 61.7779 18.0475 61.7492 17.582ZM63.2854 10.793C63.2854 10.5566 63.2603 10.3311 63.2102 10.1162C63.16 9.90137 63.0562 9.70085 62.8986 9.51465C62.7554 9.33561 62.5585 9.19238 62.3078 9.08496C62.0572 8.97754 61.7421 8.92383 61.3625 8.92383C60.8397 8.92383 60.3312 9.0957 59.8371 9.43945C59.343 9.7832 58.899 10.2451 58.5051 10.8252C58.1327 11.3695 57.8283 12.0283 57.592 12.8018C57.3557 13.5752 57.2375 14.3594 57.2375 15.1543C57.2375 15.5911 57.2626 15.9779 57.3127 16.3145C57.3628 16.651 57.4595 16.959 57.6027 17.2383C57.7388 17.5104 57.9357 17.7217 58.1936 17.8721C58.4514 18.0225 58.7772 18.0977 59.1711 18.0977C59.5721 18.0977 59.9911 17.9867 60.4279 17.7646C60.8719 17.5355 61.3697 17.138 61.9211 16.5723L63.2854 10.793ZM78.7868 17.7539L78.6256 18.4414C77.9811 18.6992 77.4798 18.8854 77.1217 19C76.7636 19.1217 76.402 19.1826 76.0368 19.1826C75.4638 19.1826 75.0342 19.0358 74.7477 18.7422C74.4612 18.4414 74.318 18.0726 74.318 17.6357C74.318 17.4782 74.3323 17.3063 74.361 17.1201C74.3896 16.9268 74.4362 16.7012 74.5006 16.4434L75.5534 12.4365C75.6321 12.1286 75.693 11.8493 75.736 11.5986C75.7861 11.348 75.8112 11.1475 75.8112 10.9971C75.8112 10.5173 75.6966 10.1377 75.4674 9.8584C75.2383 9.5791 74.8981 9.43945 74.4469 9.43945C74.0101 9.43945 73.5195 9.58268 72.9752 9.86914C72.431 10.1556 71.9189 10.571 71.4391 11.1152L69.6237 19H67.6256L69.2262 12.0391C69.262 11.8672 69.3121 11.6201 69.3766 11.2979C69.4482 10.9684 69.484 10.7035 69.484 10.5029C69.484 10.1019 69.416 9.83333 69.2799 9.69727C69.1439 9.5612 68.8717 9.49316 68.4635 9.49316C68.306 9.49316 68.1054 9.52181 67.862 9.5791C67.6185 9.62923 67.4287 9.6722 67.2926 9.70801L67.4538 9.02051C68.0123 8.76986 68.5065 8.58366 68.9362 8.46191C69.3659 8.34017 69.7347 8.2793 70.0426 8.2793C70.6084 8.2793 71.013 8.43327 71.2565 8.74121C71.5 9.04915 71.6289 9.47526 71.6432 10.0195H71.7077C72.4954 9.38932 73.1758 8.92383 73.7487 8.62305C74.3216 8.3151 74.9733 8.16113 75.7038 8.16113C76.3913 8.16113 76.9284 8.36165 77.3151 8.7627C77.7018 9.15658 77.8952 9.67578 77.8952 10.3203C77.8952 10.4492 77.8737 10.6784 77.8307 11.0078C77.7949 11.3372 77.734 11.6631 77.6481 11.9854L76.7457 15.4336C76.6813 15.6628 76.6168 15.9277 76.5524 16.2285C76.4951 16.5221 76.4664 16.7513 76.4664 16.916C76.4664 17.3242 76.556 17.6035 76.735 17.7539C76.914 17.8971 77.2077 17.9688 77.6159 17.9688C77.7519 17.9688 77.9453 17.9473 78.1959 17.9043C78.4538 17.8542 78.6507 17.804 78.7868 17.7539ZM84.8995 17.8291L84.7384 18.5166C84.0795 18.7816 83.5531 18.9642 83.1593 19.0645C82.7654 19.1719 82.4288 19.2256 82.1495 19.2256C81.5766 19.2256 81.1469 19.0788 80.8604 18.7852C80.574 18.4844 80.4307 18.1156 80.4307 17.6787C80.4307 17.514 80.4451 17.3421 80.4737 17.1631C80.5024 16.984 80.5489 16.7585 80.6134 16.4863L81.752 11.9209C81.8093 11.6702 81.863 11.4017 81.9132 11.1152C81.9705 10.8288 81.9991 10.5853 81.9991 10.3848C81.9991 9.98372 81.9311 9.71875 81.795 9.58984C81.6661 9.45378 81.3975 9.38574 80.9893 9.38574C80.8318 9.38574 80.6205 9.41081 80.3555 9.46094C80.0977 9.51107 79.9008 9.55404 79.7647 9.58984L79.9259 8.90234C80.4845 8.65169 80.9858 8.46549 81.4298 8.34375C81.8738 8.22201 82.2247 8.16113 82.4825 8.16113C83.0697 8.16113 83.4958 8.30078 83.7608 8.58008C84.0258 8.85938 84.1583 9.23535 84.1583 9.70801C84.1583 9.83691 84.144 10.0124 84.1153 10.2344C84.0867 10.4564 84.0437 10.6784 83.9864 10.9004L82.837 15.4658C82.7654 15.7451 82.7009 16.0208 82.6436 16.293C82.5935 16.5579 82.5684 16.7764 82.5684 16.9482C82.5684 17.3564 82.658 17.6357 82.837 17.7861C83.0232 17.9365 83.3204 18.0117 83.7286 18.0117C83.8647 18.0117 84.058 17.9938 84.3087 17.958C84.5665 17.9222 84.7634 17.8792 84.8995 17.8291ZM85.6622 4.10059C85.6622 4.50879 85.5297 4.86686 85.2647 5.1748C84.9998 5.47559 84.6703 5.62598 84.2764 5.62598C83.9112 5.62598 83.5961 5.48275 83.3311 5.19629C83.0662 4.90267 82.9337 4.56966 82.9337 4.19727C82.9337 3.80339 83.0662 3.45964 83.3311 3.16602C83.5961 2.8724 83.9112 2.72559 84.2764 2.72559C84.6846 2.72559 85.0177 2.86523 85.2755 3.14453C85.5333 3.41667 85.6622 3.73535 85.6622 4.10059ZM95.0406 10.3955C95.0406 11.1546 94.8006 11.8063 94.3208 12.3506C93.8482 12.8949 93.1571 13.3281 92.2476 13.6504C91.5816 13.8939 90.9084 14.0908 90.2281 14.2412C89.5477 14.3916 88.7958 14.5169 87.9722 14.6172C87.9722 15.7487 88.1799 16.6152 88.5952 17.2168C89.0178 17.8112 89.6336 18.1084 90.4429 18.1084C91.159 18.1084 91.7892 17.9294 92.3335 17.5713C92.885 17.2132 93.4256 16.6797 93.9556 15.9707L94.5679 16.4219C93.995 17.2956 93.2788 17.9938 92.4195 18.5166C91.5601 19.0394 90.6685 19.3008 89.7447 19.3008C88.4771 19.3008 87.5067 18.9463 86.8335 18.2373C86.1675 17.5283 85.8345 16.5221 85.8345 15.2188C85.8345 14.3164 85.9741 13.457 86.2534 12.6406C86.5399 11.8171 86.9553 11.0651 87.4995 10.3848C88.0295 9.71875 88.6776 9.18164 89.4439 8.77344C90.2173 8.36523 91.0695 8.16113 92.0005 8.16113C93.0318 8.16113 93.7945 8.3724 94.2886 8.79492C94.7899 9.21029 95.0406 9.74382 95.0406 10.3955ZM93.064 10.127C93.064 9.84766 93.0246 9.62923 92.9458 9.47168C92.867 9.30697 92.7668 9.18522 92.645 9.10645C92.5161 9.02051 92.3801 8.9668 92.2368 8.94531C92.0936 8.92383 91.9468 8.91309 91.7964 8.91309C90.937 8.91309 90.1421 9.38574 89.4116 10.3311C88.6883 11.2764 88.23 12.4544 88.0366 13.8652C88.5379 13.7936 89.1037 13.6934 89.7339 13.5645C90.3641 13.4284 90.8869 13.2529 91.3023 13.0381C91.8967 12.7301 92.3371 12.3363 92.6236 11.8564C92.9172 11.3695 93.064 10.793 93.064 10.127ZM118.921 3.75684L118.76 4.46582C118.56 4.47298 118.309 4.50521 118.008 4.5625C117.707 4.61979 117.478 4.6735 117.321 4.72363C117.041 4.81673 116.841 4.96354 116.719 5.16406C116.597 5.36458 116.508 5.57943 116.451 5.80859L113.894 16.9053C113.88 16.9626 113.869 17.027 113.862 17.0986C113.855 17.1702 113.851 17.2311 113.851 17.2812C113.851 17.4316 113.883 17.5641 113.948 17.6787C114.012 17.7933 114.116 17.8971 114.259 17.9902C114.367 18.0547 114.56 18.1191 114.839 18.1836C115.126 18.248 115.369 18.2839 115.57 18.291L115.409 19H109.081L109.243 18.291C109.422 18.2767 109.676 18.2552 110.005 18.2266C110.335 18.1979 110.567 18.1549 110.704 18.0977C110.954 18.0046 111.148 17.8685 111.284 17.6895C111.42 17.5104 111.516 17.2884 111.574 17.0234L112.841 11.5234H105.676L104.441 16.9053C104.426 16.9626 104.416 17.0234 104.409 17.0879C104.401 17.1523 104.398 17.2132 104.398 17.2705C104.398 17.4137 104.43 17.5498 104.495 17.6787C104.566 17.8076 104.67 17.9115 104.806 17.9902C104.913 18.0547 105.107 18.1191 105.386 18.1836C105.673 18.248 105.916 18.2839 106.117 18.291L105.955 19H99.6283L99.7895 18.291C99.9685 18.2767 100.223 18.2552 100.552 18.2266C100.882 18.1979 101.114 18.1549 101.25 18.0977C101.501 18.0046 101.694 17.8685 101.83 17.6895C101.967 17.5104 102.063 17.2884 102.121 17.0234L104.688 5.91602C104.702 5.85872 104.713 5.80143 104.72 5.74414C104.727 5.67969 104.731 5.61523 104.731 5.55078C104.731 5.39323 104.699 5.25716 104.634 5.14258C104.577 5.02799 104.469 4.92773 104.312 4.8418C104.14 4.7487 103.925 4.66634 103.667 4.59473C103.41 4.52311 103.18 4.48014 102.98 4.46582L103.141 3.75684H109.468L109.307 4.46582C109.107 4.47298 108.856 4.50521 108.555 4.5625C108.254 4.61979 108.025 4.6735 107.868 4.72363C107.588 4.81673 107.388 4.96354 107.266 5.16406C107.144 5.36458 107.055 5.57943 106.997 5.80859L105.902 10.6104H113.067L114.141 5.91602C114.155 5.85872 114.166 5.80143 114.173 5.74414C114.18 5.67969 114.184 5.61882 114.184 5.56152C114.184 5.40397 114.152 5.2679 114.087 5.15332C114.03 5.03158 113.923 4.92773 113.765 4.8418C113.593 4.7487 113.378 4.66634 113.121 4.59473C112.863 4.52311 112.634 4.48014 112.433 4.46582L112.594 3.75684H118.921ZM128.493 12.3828C128.493 13.2279 128.35 14.0729 128.063 14.918C127.777 15.763 127.362 16.5042 126.817 17.1416C126.266 17.8005 125.6 18.3304 124.819 18.7314C124.046 19.1253 123.147 19.3223 122.123 19.3223C120.934 19.3223 119.967 18.9391 119.223 18.1729C118.485 17.4066 118.116 16.3753 118.116 15.0791C118.116 14.1266 118.274 13.2386 118.589 12.415C118.904 11.5915 119.326 10.8682 119.856 10.2451C120.393 9.62207 121.056 9.12077 121.844 8.74121C122.639 8.35449 123.498 8.16113 124.422 8.16113C125.696 8.16113 126.692 8.55143 127.408 9.33203C128.131 10.1055 128.493 11.1224 128.493 12.3828ZM126.302 11.9746C126.302 10.9577 126.119 10.195 125.754 9.68652C125.396 9.17806 124.876 8.92383 124.196 8.92383C123.602 8.92383 123.04 9.10645 122.51 9.47168C121.987 9.83691 121.536 10.4313 121.156 11.2549C120.862 11.8779 120.648 12.5726 120.512 13.3389C120.375 14.098 120.307 14.7998 120.307 15.4443C120.307 16.4684 120.483 17.2454 120.834 17.7754C121.192 18.2982 121.729 18.5596 122.445 18.5596C123.083 18.5596 123.648 18.359 124.142 17.958C124.637 17.557 125.038 17.0485 125.346 16.4326C125.653 15.8311 125.89 15.1436 126.055 14.3701C126.219 13.5895 126.302 12.791 126.302 11.9746ZM135.218 2.53223L132.221 15.4658C132.157 15.738 132.096 16.0101 132.038 16.2822C131.981 16.5544 131.952 16.7764 131.952 16.9482C131.952 17.3564 132.042 17.6357 132.221 17.7861C132.407 17.9365 132.704 18.0117 133.113 18.0117C133.256 18.0117 133.467 17.9938 133.746 17.958C134.033 17.9222 134.248 17.8792 134.391 17.8291L134.23 18.5166C133.585 18.7744 133.088 18.957 132.737 19.0645C132.393 19.1719 132.003 19.2256 131.566 19.2256C130.993 19.2256 130.556 19.0788 130.255 18.7852C129.962 18.4844 129.815 18.1156 129.815 17.6787C129.815 17.514 129.829 17.3421 129.858 17.1631C129.894 16.984 129.94 16.7585 129.997 16.4863L132.608 5.1748C132.658 4.9528 132.69 4.79883 132.704 4.71289C132.726 4.62695 132.737 4.51953 132.737 4.39062C132.737 4.13281 132.694 3.93587 132.608 3.7998C132.522 3.65658 132.4 3.54915 132.242 3.47754C132.092 3.41309 131.902 3.37012 131.673 3.34863C131.444 3.32715 131.211 3.30208 130.975 3.27344L131.125 2.61816L135.111 2.37109L135.218 2.53223ZM153.33 17.7861L153.169 18.4736C152.51 18.7386 151.983 18.9212 151.59 19.0215C151.196 19.1289 150.859 19.1826 150.58 19.1826C150.007 19.1826 149.577 19.0358 149.291 18.7422C149.004 18.4414 148.861 18.0726 148.861 17.6357C148.861 17.4782 148.875 17.3063 148.904 17.1201C148.933 16.9268 148.979 16.7012 149.044 16.4434L150.096 12.4365C150.175 12.1286 150.236 11.8493 150.279 11.5986C150.329 11.348 150.354 11.1475 150.354 10.9971C150.354 10.5173 150.25 10.1377 150.043 9.8584C149.835 9.5791 149.506 9.43945 149.054 9.43945C148.575 9.43945 148.102 9.55404 147.636 9.7832C147.178 10.0052 146.659 10.4242 146.079 11.04L144.21 19H142.212L143.898 11.8242C143.934 11.6667 143.966 11.502 143.995 11.3301C144.031 11.151 144.049 11.0186 144.049 10.9326C144.049 10.4671 143.93 10.1019 143.694 9.83691C143.465 9.57194 143.125 9.43945 142.674 9.43945C142.265 9.43945 141.814 9.54329 141.32 9.75098C140.826 9.9515 140.253 10.4062 139.601 11.1152L137.786 19H135.788L137.388 12.0391C137.446 11.7884 137.499 11.5199 137.55 11.2334C137.607 10.9469 137.635 10.7035 137.635 10.5029C137.635 10.0876 137.567 9.81543 137.431 9.68652C137.295 9.55046 137.03 9.48242 136.636 9.48242C136.479 9.48242 136.275 9.51107 136.024 9.56836C135.781 9.62565 135.591 9.6722 135.455 9.70801L135.616 9.02051C136.175 8.76986 136.669 8.58366 137.098 8.46191C137.528 8.34017 137.897 8.2793 138.205 8.2793C138.778 8.2793 139.182 8.43685 139.419 8.75195C139.662 9.0599 139.791 9.48242 139.805 10.0195H139.87C140.715 9.35352 141.41 8.87728 141.954 8.59082C142.498 8.30436 143.146 8.16113 143.898 8.16113C144.536 8.16113 145.051 8.34733 145.445 8.71973C145.846 9.08496 146.072 9.54688 146.122 10.1055H146.165C146.931 9.4681 147.611 8.9847 148.206 8.65527C148.807 8.32585 149.506 8.16113 150.301 8.16113C150.988 8.16113 151.514 8.36165 151.88 8.7627C152.252 9.15658 152.438 9.67578 152.438 10.3203C152.438 10.4492 152.417 10.6784 152.374 11.0078C152.338 11.3372 152.277 11.6631 152.191 11.9854L151.289 15.4336C151.224 15.6628 151.163 15.9277 151.106 16.2285C151.049 16.5221 151.02 16.7513 151.02 16.916C151.02 17.3242 151.106 17.6035 151.278 17.7539C151.45 17.8971 151.74 17.9688 152.148 17.9688C152.284 17.9688 152.481 17.9508 152.739 17.915C152.997 17.8792 153.194 17.8363 153.33 17.7861ZM163.471 10.3955C163.471 11.1546 163.231 11.8063 162.751 12.3506C162.278 12.8949 161.587 13.3281 160.678 13.6504C160.012 13.8939 159.339 14.0908 158.658 14.2412C157.978 14.3916 157.226 14.5169 156.402 14.6172C156.402 15.7487 156.61 16.6152 157.026 17.2168C157.448 17.8112 158.064 18.1084 158.873 18.1084C159.589 18.1084 160.22 17.9294 160.764 17.5713C161.315 17.2132 161.856 16.6797 162.386 15.9707L162.998 16.4219C162.425 17.2956 161.709 17.9938 160.85 18.5166C159.99 19.0394 159.099 19.3008 158.175 19.3008C156.907 19.3008 155.937 18.9463 155.264 18.2373C154.598 17.5283 154.265 16.5221 154.265 15.2188C154.265 14.3164 154.404 13.457 154.684 12.6406C154.97 11.8171 155.386 11.0651 155.93 10.3848C156.46 9.71875 157.108 9.18164 157.874 8.77344C158.648 8.36523 159.5 8.16113 160.431 8.16113C161.462 8.16113 162.225 8.3724 162.719 8.79492C163.22 9.21029 163.471 9.74382 163.471 10.3955ZM161.494 10.127C161.494 9.84766 161.455 9.62923 161.376 9.47168C161.297 9.30697 161.197 9.18522 161.075 9.10645C160.946 9.02051 160.81 8.9668 160.667 8.94531C160.524 8.92383 160.377 8.91309 160.227 8.91309C159.367 8.91309 158.572 9.38574 157.842 10.3311C157.119 11.2764 156.66 12.4544 156.467 13.8652C156.968 13.7936 157.534 13.6934 158.164 13.5645C158.794 13.4284 159.317 13.2529 159.733 13.0381C160.327 12.7301 160.767 12.3363 161.054 11.8564C161.347 11.3695 161.494 10.793 161.494 10.127ZM167.349 19.3115C166.289 19.3115 165.405 19.1253 164.696 18.7529C163.994 18.3734 163.643 17.8792 163.643 17.2705C163.643 16.984 163.747 16.7155 163.955 16.4648C164.162 16.2142 164.417 16.0889 164.717 16.0889C165.004 16.0889 165.233 16.1569 165.405 16.293C165.584 16.4219 165.724 16.5758 165.824 16.7549C165.931 16.9411 166.024 17.1631 166.103 17.4209C166.189 17.6787 166.261 17.89 166.318 18.0547C166.425 18.1764 166.572 18.291 166.758 18.3984C166.952 18.4987 167.227 18.5488 167.586 18.5488C168.359 18.5488 168.943 18.3555 169.337 17.9688C169.738 17.582 169.938 17.0592 169.938 16.4004C169.938 15.9134 169.752 15.5267 169.379 15.2402C169.007 14.9466 168.452 14.6781 167.714 14.4346C167.449 14.3486 167.138 14.2197 166.78 14.0479C166.422 13.8688 166.135 13.679 165.921 13.4785C165.663 13.2493 165.455 12.9772 165.297 12.6621C165.14 12.347 165.061 11.9746 165.061 11.5449C165.061 10.6283 165.469 9.83691 166.286 9.1709C167.109 8.49772 168.119 8.16113 169.315 8.16113C169.594 8.16113 169.895 8.17546 170.217 8.2041C170.54 8.23275 170.894 8.31152 171.281 8.44043C171.617 8.55501 171.904 8.72689 172.14 8.95605C172.377 9.17806 172.495 9.4681 172.495 9.82617C172.495 10.1198 172.394 10.3883 172.194 10.6318C172.001 10.8682 171.743 10.9863 171.421 10.9863C171.156 10.9863 170.937 10.929 170.765 10.8145C170.593 10.6999 170.45 10.5459 170.336 10.3525C170.221 10.1592 170.128 9.9515 170.056 9.72949C169.985 9.50749 169.906 9.28906 169.82 9.07422C169.684 9.01693 169.562 8.97754 169.455 8.95605C169.347 8.93457 169.204 8.92383 169.025 8.92383C168.323 8.92383 167.79 9.11361 167.424 9.49316C167.066 9.86556 166.887 10.3096 166.887 10.8252C166.887 11.3265 167.048 11.7061 167.371 11.9639C167.7 12.2145 168.241 12.4759 168.993 12.748C169.967 13.099 170.672 13.5 171.109 13.9512C171.553 14.4023 171.775 14.9609 171.775 15.627C171.775 16.7155 171.356 17.6035 170.518 18.291C169.68 18.9714 168.624 19.3115 167.349 19.3115Z" fill="#E9DEFF"/>
<path id="Line 1" d="M1 25.75C27.0651 22.1529 101.613 19.6588 174 24.2228" stroke="#E9DEFF" stroke-linecap="round"/>
</g>
</g>
</g>
</svg>
